# xmcd
#
# Track frame offsets:
#	150
#	16607
#	32115
#	49740
#	65700
#	78600
#	99522
#	116495
#	137822
#	160507
#	180432
#	196225
#	213942
#	234500
#	250795
#	272345
#
# Disc length: 3928
#
# Revision: 2
# Processed by: cddbd v1.5.1PL0 Copyright (c) Steve Scherf et al.
# Submitted via: EasyCDDAExtractor 5.0.7
# Normalized: r1:DSETVAR1
#
DISCID=cb0f5610
DTITLE=Various Artist - Blues Review Blues Music Sampler (December and January 2004)
DYEAR=2003
DGENRE=Blues
TTITLE0=Carey Bell - Christmas Train
TTITLE1=Peter Karp - The Arson's March
TTITLE2=Floyd Lee with Sam Carr and Joel Poluck - Willow Tree Blues
TTITLE3=Rob Stone and The C-Notes - Playing Games
TTITLE4=Radiotones - Bring My Baby Back
TTITLE5=Nick Moss and The Flip Tops - Break Bad
TTITLE6=Willie Lomax Blues Revue - Lighten Up
TTITLE7=Eugene Hideaway Bridges - Take Home Pay
TTITLE8=Roger "Hurricane Wilson" - Talking Heads
TTITLE9=BC and The Blues Crew - Unfinished Business
TTITLE10=Danny Rhodes and The Messengers - Two Tons of Love
TTITLE11=Watermelon Slim - Blue Freightliner
TTITLE12=Aldis and The Blue Cats - Mosquito Water
TTITLE13=Harper - I Know
TTITLE14=Jack de Keyzer - The Answer
TTITLE15=Sonny Boy Terry - Let's All Go to Miss Ann's Playpen
EXTD=
EXTT0=
EXTT1=
EXTT2=
EXTT3=
EXTT4=
EXTT5=
EXTT6=
EXTT7=
EXTT8=
EXTT9=
EXTT10=
EXTT11=
EXTT12=
EXTT13=
EXTT14=
EXTT15=
PLAYORDER=
